<svg width="21" height="17" viewBox="0 0 21 17" fill="none" xmlns="http://www.w3.org/2000/svg">
<path d="M10.0154 16.9158V14.6568L15.9134 9.02249L18.2782 11.2815L12.3802 16.9158H10.0154ZM0 11.6004V9.4743H7.78979V11.6004H0ZM19.0572 10.5374L16.6924 8.27834L17.4992 7.50761C17.7032 7.31271 17.9629 7.21526 18.2782 7.21526C18.5935 7.21526 18.8532 7.31271 19.0572 7.50761L19.864 8.27834C20.068 8.47324 20.17 8.72129 20.17 9.02249C20.17 9.3237 20.068 9.57175 19.864 9.76664L19.0572 10.5374ZM0 7.34815V5.222H12.2411V7.34815H0ZM0 3.09585V0.969696H12.2411V3.09585H0Z" fill="#DFBD43"/>
</svg>
