<svg width="21" height="17" viewBox="0 0 21 17" fill="none" xmlns="http://www.w3.org/2000/svg">
<path d="M10.0154 16.3333V14.0743L15.9134 8.44L18.2782 10.699L12.3802 16.3333H10.0154ZM0 11.018V8.89181H7.78979V11.018H0ZM19.0572 9.95488L16.6924 7.69585L17.4992 6.92512C17.7032 6.73022 17.9629 6.63277 18.2782 6.63277C18.5935 6.63277 18.8532 6.73022 19.0572 6.92512L19.864 7.69585C20.068 7.89075 20.17 8.1388 20.17 8.44C20.17 8.74121 20.068 8.98926 19.864 9.18415L19.0572 9.95488ZM0 6.76566V4.63951H12.2411V6.76566H0ZM0 2.51336V0.387207H12.2411V2.51336H0Z" fill="#DFBD43"/>
</svg>
